<?xml version="1.0" encoding="UTF-8"?>
<svg t="1747814836215" class="icon" viewBox="0 0 1024 1024" version="1.1" xmlns="http://www.w3.org/2000/svg" p-id="977" width="200" height="200">
  <path d="M512 512m-432.3328 0a432.3328 432.3328 0 1 0 864.6656 0 432.3328 432.3328 0 1 0-864.6656 0Z" fill="#F66755" p-id="978"></path>
  <path d="M287.0272 417.8432a256.3584 256.3584 0 0 0-207.104 105.0624 432.4352 432.4352 0 0 0 285.952 396.032 256.768 256.768 0 0 0-78.848-501.0944z" fill="#FF7D73" p-id="979"></path>
  <path d="M455.3728 240.64c-3.1232 42.8544-20.48 135.4752-104.9088 233.7792a164.2496 164.2496 0 0 0-3.84-61.44 14.08 14.08 0 0 0-27.1872 0 367.9232 367.9232 0 0 1-38.5536 87.2448c-43.4176 74.7008-51.2 204.1856 108.7488 277.4016a265.0112 265.0112 0 0 0 212.8384 3.7888c190.3104-80.2304 150.528-261.12 137.472-298.5984-13.1584-40.0384-52.2752-104.7552-92.16-143.9744a10.24 10.24 0 0 0-17.6128 7.936c1.8432 33.6896-4.1472 63.3344-18.8928 81.92-1.1264-33.0752-9.3696-136.0896-131.9936-201.6256A16.384 16.384 0 0 0 455.3728 240.64z" fill="#FFFFFF" p-id="980"></path>
  <path d="M437.8624 526.5408a9.3696 9.3696 0 0 0-16.0256 5.632 150.3744 150.3744 0 0 1-29.1328 76.288c-33.3312 43.4176-39.8848 154.624 101.6832 189.44 151.6032-24.1152 137.9328-166.0416 122.88-208.4352-11.0592-30.72-48.4864-80.5376-123.8016-122.4192a9.4208 9.4208 0 0 0-13.824 9.8816c7.5264 40.2944 3.5328 91.6992-20.8384 123.1872 2.6624-36.1472-5.0176-57.3952-20.9408-73.5744z" fill="#FFCAC7" p-id="981"></path>
</svg> 