<?xml version="1.0" standalone="no"?><!DOCTYPE svg PUBLIC "-//W3C//DTD SVG 1.1//EN" "http://www.w3.org/Graphics/SVG/1.1/DTD/svg11.dtd"><svg t="1747302611376" class="icon" viewBox="0 0 1024 1024" version="1.1" xmlns="http://www.w3.org/2000/svg" p-id="2620" xmlns:xlink="http://www.w3.org/1999/xlink" width="200" height="200"><path d="M741.16 348.57v11.75l-1.36-1.09-0.19-0.16-0.19 0.16-1.36 1.09v-11.75h3.1m0.31-0.31h-3.72V361l1.86-1.49 1.86 1.49z m0 0" fill="#C74343" p-id="2621"></path><path d="M276.3 541.94l-4.62 61.59q-2.36 32.11-4 46.19-0.49 3-1 13.16-1.18 24.74-7.23 33t-11.55 8.29a10.55 10.55 0 0 1-8.8-4.47 17.13 17.13 0 0 1-3.39-10.66 44.6 44.6 0 0 1 1.28-8 89.34 89.34 0 0 0 1.92-14.54q0.44-8 3.39-46.92l5.8-75.41-10.52 0.53q-17.89 0.92-28.36-2.17t-10.47-13.75a27.21 27.21 0 0 1 4.47-15.33q4.47-6.78 11.65-6.78l27.81 2.33q7.37 0 24.87-1.45t23.79-1.45l30.87 0.79a57.59 57.59 0 0 1 10 0.53q2.26 0.53 4.82 4.15a16 16 0 0 1 2.57 9.43 24.22 24.22 0 0 1-4.92 14.87q-4.92 6.58-10.71 6.58l-42.27-0.53zM339.1 656.83a113.92 113.92 0 0 1 17.84-61.46q17.84-28.56 45.86-28.56 16.12 0 25.31 14.67t9.19 38.76q0 34.61-16.86 62.64t-42 28q-17.5 0-28.41-15.33t-10.93-38.72z m27.52-5.26q0 11.19 4.08 17.9a13 13 0 0 0 11.75 6.71q12.78 0 20.35-14.41t7.57-37q0-23.16-13.27-23.16-13 0-21.72 16.78t-8.76 33.18zM544 570.76q7.47-48.56 10.67-62.91t14.5-14.34q11.11 0 11.11 14.21 0 7-9.24 59.88-7.77 43.69-11 75.08t-3.19 41.92a50.16 50.16 0 0 1-0.79 10q-0.79 3.69-5 8.16t-9.29 4.47q-7.37 0-9.93-8.95-14.35 10.79-30 10.79-20.64 0-32.34-16.06t-11.7-39a117.68 117.68 0 0 1 17.65-63q17.64-28.62 46.35-28.62 14.68 0.08 22.2 8.37z m-6.78 41.59q-4.52-16.45-18.78-16.45-18.28 0-26.59 16.71a75 75 0 0 0-8.31 33.69q0 12.37 6.54 20.73t15.92 8.35q12.88 0 25.56-14.87 0-4.6 5.7-48.16zM652.17 698.55q-19.37 11.84-29 11.84-40.5 0-40.5-49.88 0-41.46 21.63-68.1t47.87-26.65q9.63 0 21.48 7.57t11.85 17.17a18.22 18.22 0 0 1-3.15 10.5q-3.34 10.53-5.65 30.53t-2.31 30a38.48 38.48 0 0 0 0.59 8.16l2.95 12.9q2.26 10.27 2.26 12.63 0 5-4.42 10.79t-10.91 5.79q-4.24 0.04-12.69-13.25z m3.44-98.83a8.89 8.89 0 0 0-5.6-2.5q-14.65 0-27.13 16.52t-12.48 42.18q0 23.29 15.24 23.29 12.39 0 23.1-10.79 1.07-49.76 6.87-68.71zM745.35 689.73q-4.72-20.53-24.08-84.09-5.21-13.29-5.21-18.82a21.94 21.94 0 0 1 5.11-13.75q5.11-6.51 11.11-6.51a9.88 9.88 0 0 1 7.47 3.22q3 3.23 10.62 25.6t14.94 52.51q26.93-59.62 34-70.6t13.81-11a10.78 10.78 0 0 1 8.65 4.34 15.75 15.75 0 0 1 3.54 10.27 26.66 26.66 0 0 1-2.61 10.73q-2.61 5.86-45.07 94.29-20.15 40.8-30 66.85-6.88 18.29-10.13 22.5t-9.24 4.21a10.83 10.83 0 0 1-8.8-4.34 15.89 15.89 0 0 1-3.46-10.26q0-11.45 29.35-75.15zM302.77 273.27c-16.9 0-30.6-8.85-30.6-19.77V121.7c0-10.92 13.7-19.77 30.6-19.77s30.6 8.85 30.6 19.77v131.8c0 10.92-13.7 19.77-30.6 19.77z" p-id="2622"></path><path d="M839.82 197.8H786.2v52a68.33 68.33 0 0 1-68.33 68.33 68.33 68.33 0 0 1-68.33-68.33v-52H370.08V260a68.33 68.33 0 0 1-68.33 68.33A68.33 68.33 0 0 1 233.42 260v-62.2h-49.24A82.18 82.18 0 0 0 102 280v572.84a69.37 69.37 0 0 0 69.35 69.23h681.3A69.37 69.37 0 0 0 922 852.84V280a82.18 82.18 0 0 0-82.18-82.2z m33.22 655a20.4 20.4 0 0 1-20.4 20.36H171.35A20.4 20.4 0 0 1 151 852.84v-453h722z" p-id="2623"></path><path d="M718.89 273.27c-16.9 0-30.6-8.85-30.6-19.77V121.7c0-10.92 13.7-19.77 30.6-19.77s30.6 8.85 30.6 19.77v131.8c0 10.92-13.7 19.77-30.6 19.77z" p-id="2624"></path></svg>